<!DOCTYPE svg PUBLIC "-//W3C//DTD SVG 1.1//EN" "http://www.w3.org/Graphics/SVG/1.1/DTD/svg11.dtd">
<!-- Uploaded to: SVG Repo, www.svgrepo.com, Transformed by: SVG Repo Mixer Tools -->
<svg height="800px" width="800px" version="1.1" id="Layer_1" xmlns="http://www.w3.org/2000/svg" xmlns:xlink="http://www.w3.org/1999/xlink" viewBox="0 0 512 512" xml:space="preserve" fill="#000000">
<g id="SVGRepo_bgCarrier" stroke-width="0"/>
<g id="SVGRepo_tracerCarrier" stroke-linecap="round" stroke-linejoin="round"/>
<g id="SVGRepo_iconCarrier"> <g transform="translate(1 1)"> <path style="fill:#918012;" d="M203.8,502.467l25.6-25.6l25.6,25.6l25.6-25.6l25.6,25.6l25.6-25.6l25.6,25.6l25.6-25.6l25.6,25.6 h8.533V24.6c0-9.387-7.68-17.067-17.067-17.067H109.933c-9.387,0-17.067,7.68-17.067,17.067v477.867h8.533l25.6-25.6l25.6,25.6 l25.6-25.6L203.8,502.467z"/> <path style="fill:#b77a24;" d="M400.067,7.533H383c9.387,0,17.067,7.68,17.067,17.067v469.333l8.533,8.533h8.533V24.6 C417.133,15.213,409.453,7.533,400.067,7.533"/> <path style="fill:#FFFFFF;" d="M109.933,7.533H127c-9.387,0-17.067,7.68-17.067,17.067v469.333l-8.533,8.533h-8.533V24.6 C92.867,15.213,100.547,7.533,109.933,7.533"/> <polygon style="fill:#b9951d;" points="127,297.667 383,297.667 383,41.667 127,41.667 "/> <polygon style="fill:#b77a24;" points="357.4,297.667 383,297.667 383,41.667 357.4,41.667 "/> <path d="M383,306.2H127c-5.12,0-8.533-3.413-8.533-8.533v-256c0-5.12,3.413-8.533,8.533-8.533h256c5.12,0,8.533,3.413,8.533,8.533 v256C391.533,302.787,388.12,306.2,383,306.2z M135.533,289.133h238.933V50.2H135.533V289.133z"/> <path d="M255,280.6c-5.12,0-8.533-3.413-8.533-8.533v-204.8c0-5.12,3.413-8.533,8.533-8.533c5.12,0,8.533,3.413,8.533,8.533v204.8 C263.533,277.187,260.12,280.6,255,280.6z"/> <path d="M255,263.533c-21.333,0-39.253-7.68-49.493-20.48c-2.56-3.413-2.56-9.387,1.707-11.947c3.413-2.56,9.387-2.56,11.947,1.707 c6.827,8.533,20.48,13.653,35.84,13.653c20.48,0,42.667-12.8,42.667-34.133c0-20.48-22.187-34.133-42.667-34.133 c-29.013,0-59.733-19.627-59.733-51.2S225.987,75.8,255,75.8c21.333,0,39.253,6.827,49.493,20.48 c2.56,3.413,2.56,9.387-1.707,11.947c-3.413,2.56-9.387,2.56-11.947-1.707c-6.827-8.533-19.627-13.653-35.84-13.653 c-20.48,0-42.667,13.653-42.667,34.133c0,21.333,22.187,34.133,42.667,34.133c29.013,0,59.733,19.627,59.733,51.2 S284.013,263.533,255,263.533z"/> <path d="M297.667,135.533c-5.12,0-8.533-3.413-8.533-8.533V75.8c0-5.12,3.413-8.533,8.533-8.533S306.2,70.68,306.2,75.8V127 C306.2,132.12,302.787,135.533,297.667,135.533z"/> <path d="M212.333,272.067c-5.12,0-8.533-3.413-8.533-8.533v-51.2c0-5.12,3.413-8.533,8.533-8.533c5.12,0,8.533,3.413,8.533,8.533 v51.2C220.867,268.653,217.453,272.067,212.333,272.067z"/> <path d="M220.867,357.4H127c-5.12,0-8.533-3.413-8.533-8.533c0-5.12,3.413-8.533,8.533-8.533h93.867 c5.12,0,8.533,3.413,8.533,8.533C229.4,353.987,225.987,357.4,220.867,357.4z"/> <path d="M314.733,357.4H255c-5.12,0-8.533-3.413-8.533-8.533c0-5.12,3.413-8.533,8.533-8.533h59.733 c5.12,0,8.533,3.413,8.533,8.533C323.267,353.987,319.853,357.4,314.733,357.4z"/> <path d="M383,357.4h-34.133c-5.12,0-8.533-3.413-8.533-8.533c0-5.12,3.413-8.533,8.533-8.533H383c5.12,0,8.533,3.413,8.533,8.533 C391.533,353.987,388.12,357.4,383,357.4z"/> <path d="M220.867,425.667H127c-5.12,0-8.533-3.413-8.533-8.533S121.88,408.6,127,408.6h93.867c5.12,0,8.533,3.413,8.533,8.533 S225.987,425.667,220.867,425.667z"/> <path d="M314.733,425.667H255c-5.12,0-8.533-3.413-8.533-8.533S249.88,408.6,255,408.6h59.733c5.12,0,8.533,3.413,8.533,8.533 S319.853,425.667,314.733,425.667z"/> <path d="M383,425.667h-34.133c-5.12,0-8.533-3.413-8.533-8.533s3.413-8.533,8.533-8.533H383c5.12,0,8.533,3.413,8.533,8.533 S388.12,425.667,383,425.667z"/> <path d="M383,391.533h-76.8c-5.12,0-8.533-3.413-8.533-8.533c0-5.12,3.413-8.533,8.533-8.533H383c5.12,0,8.533,3.413,8.533,8.533 C391.533,388.12,388.12,391.533,383,391.533z"/> <path d="M272.067,391.533h-85.333c-5.12,0-8.533-3.413-8.533-8.533c0-5.12,3.413-8.533,8.533-8.533h85.333 c5.12,0,8.533,3.413,8.533,8.533C280.6,388.12,277.187,391.533,272.067,391.533z"/> <path d="M152.6,391.533H127c-5.12,0-8.533-3.413-8.533-8.533c0-5.12,3.413-8.533,8.533-8.533h25.6c5.12,0,8.533,3.413,8.533,8.533 C161.133,388.12,157.72,391.533,152.6,391.533z"/> <path d="M417.133,511H408.6c-2.56,0-4.267-0.853-5.973-2.56L383,488.813l-19.627,19.627c-3.413,3.413-8.533,3.413-11.947,0 L331.8,488.813l-19.627,19.627c-3.413,3.413-8.533,3.413-11.947,0L280.6,488.813l-19.627,19.627c-3.413,3.413-8.533,3.413-11.947,0 L229.4,488.813l-19.627,19.627c-3.413,3.413-8.533,3.413-11.947,0L178.2,488.813l-19.627,19.627c-3.413,3.413-8.533,3.413-11.947,0 L127,488.813l-19.627,19.627c-1.707,1.707-3.413,2.56-5.973,2.56h-8.533c-5.12,0-8.533-3.413-8.533-8.533V24.6 c0-14.507,11.093-25.6,25.6-25.6h290.133c14.507,0,25.6,11.093,25.6,25.6v477.867C425.667,507.587,422.253,511,417.133,511z M383,468.333c2.56,0,4.267,0.853,5.973,2.56L408.6,490.52V24.6c0-5.12-3.413-8.533-8.533-8.533H109.933 c-5.12,0-8.533,3.413-8.533,8.533v465.92l19.627-19.627c3.413-3.413,8.533-3.413,11.947,0L152.6,490.52l19.627-19.627 c3.413-3.413,8.533-3.413,11.947,0L203.8,490.52l19.627-19.627c3.413-3.413,8.533-3.413,11.947,0L255,490.52l19.627-19.627 c3.413-3.413,8.533-3.413,11.947,0L306.2,490.52l19.627-19.627c3.413-3.413,8.533-3.413,11.947,0L357.4,490.52l19.627-19.627 C378.733,469.187,380.44,468.333,383,468.333z"/> </g> </g>
</svg>